<?xml version="1.0" encoding="UTF-8"?><svg id="Calque_1" xmlns="http://www.w3.org/2000/svg" viewBox="0 0 1423 407.5"><defs><style>.cls-1{fill:#296032;}.cls-1,.cls-2,.cls-3,.cls-4,.cls-5,.cls-6,.cls-7,.cls-8{stroke-width:0px;}.cls-2,.cls-9{fill:#000;}.cls-3{fill:#fdbb30;}.cls-4{fill:none;}.cls-5{fill:#002d62;}.cls-9{stroke:#fff;stroke-miterlimit:10;}.cls-6{fill:#f2f1eb;}.cls-7{fill:#296032;}.cls-8{fill:#fff;}</style></defs><path class="cls-2" d="M91.06,217.08c-1.71,4.16-4.11,7.68-7.2,10.56-3.1,2.88-6.8,5.12-11.12,6.72-4.32,1.6-9.1,2.4-14.32,2.4h-30.25v46.89h-12.16v-113.95h42.41c5.23,0,10,.77,14.32,2.32,4.32,1.55,8.03,3.79,11.12,6.72,3.09,2.94,5.49,6.46,7.2,10.56,1.71,4.11,2.56,8.72,2.56,13.84s-.86,9.76-2.56,13.92ZM74.73,186.19c-4.48-3.73-10.3-5.6-17.44-5.6h-29.13v45.29h29.13c7.15,0,12.96-1.89,17.44-5.68,4.48-3.79,6.72-9.47,6.72-17.04s-2.24-13.23-6.72-16.96Z"/><path class="cls-2" d="M183.08,283.66v-52.01h-54.09v52.01h-12.16v-113.95h12.16v51.05h54.09v-51.05h12.16v113.95h-12.16Z"/><path class="cls-2" d="M303.42,242.61c-.11,4.54-.51,8.59-1.2,12.16-.7,3.58-1.76,6.8-3.2,9.68-1.44,2.88-3.5,5.66-6.16,8.32-3.84,3.84-8.22,6.78-13.12,8.8-4.91,2.03-10.24,3.04-16,3.04-11.52,0-21.23-3.95-29.13-11.84-2.67-2.67-4.72-5.44-6.16-8.32-1.44-2.88-2.51-6.11-3.2-9.68-.7-3.57-1.1-7.63-1.2-12.16-.11-4.53-.16-9.84-.16-15.92s.05-11.39.16-15.92c.11-4.53.51-8.59,1.2-12.16.69-3.57,1.76-6.8,3.2-9.68,1.44-2.88,3.49-5.65,6.16-8.32,7.89-7.89,17.6-11.84,29.13-11.84s21.23,3.95,29.13,11.84c2.67,2.67,4.72,5.44,6.16,8.32s2.51,6.11,3.2,9.68c.69,3.58,1.09,7.63,1.2,12.16.11,4.54.16,9.84.16,15.92s-.05,11.39-.16,15.92ZM291.18,211.56c-.16-4.11-.51-7.6-1.04-10.48-.53-2.88-1.33-5.36-2.4-7.44-1.07-2.08-2.51-4.03-4.32-5.84-2.46-2.56-5.42-4.56-8.88-6-3.47-1.44-7.07-2.16-10.8-2.16s-7.34.72-10.8,2.16c-3.47,1.44-6.43,3.44-8.88,6-1.81,1.82-3.25,3.76-4.32,5.84-1.07,2.08-1.87,4.56-2.4,7.44-.54,2.88-.88,6.38-1.04,10.48-.16,4.11-.24,9.15-.24,15.12s.08,11.02.24,15.12c.16,4.11.51,7.6,1.04,10.48.53,2.88,1.33,5.36,2.4,7.44,1.07,2.08,2.51,4.03,4.32,5.84,2.45,2.56,5.41,4.56,8.88,6,3.47,1.44,7.07,2.16,10.8,2.16s7.33-.72,10.8-2.16c3.47-1.44,6.43-3.44,8.88-6,1.81-1.81,3.25-3.76,4.32-5.84,1.07-2.08,1.87-4.56,2.4-7.44.53-2.88.88-6.37,1.04-10.48.16-4.11.24-9.15.24-15.12s-.08-11.01-.24-15.12Z"/><path class="cls-2" d="M362.48,180.59v103.06h-12.16v-103.06h-32.97v-10.88h78.1v10.88h-32.97Z"/><path class="cls-2" d="M488.75,242.61c-.11,4.54-.51,8.59-1.2,12.16-.7,3.58-1.76,6.8-3.2,9.68-1.44,2.88-3.5,5.66-6.16,8.32-3.84,3.84-8.22,6.78-13.12,8.8-4.91,2.03-10.24,3.04-16,3.04-11.52,0-21.23-3.95-29.13-11.84-2.67-2.67-4.72-5.44-6.16-8.32-1.44-2.88-2.51-6.11-3.2-9.68-.7-3.57-1.1-7.63-1.2-12.16-.11-4.53-.16-9.84-.16-15.92s.05-11.39.16-15.92c.11-4.53.51-8.59,1.2-12.16.69-3.57,1.76-6.8,3.2-9.68,1.44-2.88,3.49-5.65,6.16-8.32,7.89-7.89,17.6-11.84,29.13-11.84s21.23,3.95,29.13,11.84c2.67,2.67,4.72,5.44,6.16,8.32,1.44,2.88,2.51,6.11,3.2,9.68.69,3.58,1.09,7.63,1.2,12.16.11,4.54.16,9.84.16,15.92s-.05,11.39-.16,15.92ZM476.5,211.56c-.16-4.11-.51-7.6-1.04-10.48-.53-2.88-1.33-5.36-2.4-7.44-1.07-2.08-2.51-4.03-4.32-5.84-2.46-2.56-5.42-4.56-8.88-6-3.47-1.44-7.07-2.16-10.8-2.16s-7.34.72-10.8,2.16c-3.47,1.44-6.43,3.44-8.88,6-1.81,1.82-3.25,3.76-4.32,5.84-1.07,2.08-1.87,4.56-2.4,7.44-.54,2.88-.88,6.38-1.04,10.48-.16,4.11-.24,9.15-.24,15.12s.08,11.02.24,15.12c.16,4.11.51,7.6,1.04,10.48.53,2.88,1.33,5.36,2.4,7.44,1.07,2.08,2.51,4.03,4.32,5.84,2.45,2.56,5.41,4.56,8.88,6,3.47,1.44,7.07,2.16,10.8,2.16s7.33-.72,10.8-2.16c3.47-1.44,6.43-3.44,8.88-6,1.81-1.81,3.25-3.76,4.32-5.84,1.07-2.08,1.87-4.56,2.4-7.44.53-2.88.88-6.37,1.04-10.48.16-4.11.24-9.15.24-15.12s-.08-11.01-.24-15.12Z"/><path class="cls-2" d="M978.07,283.65v-86.58l-31.21,68.65h-10.4l-31.69-68.65v86.58h-12.16v-113.95h12.16l37.13,80.82,36.17-80.82h12.16v113.95h-12.16Z"/><path class="cls-2" d="M1089.61,283.65l-9.12-25.77h-49.77l-9.12,25.77h-12.96l41.93-113.95h10.24l41.77,113.95h-12.96ZM1055.84,187.15l-21.45,60.17h42.57l-21.12-60.17Z"/><path class="cls-2" d="M1196.03,217.08c-1.71,4.16-4.11,7.68-7.2,10.56-3.1,2.88-6.8,5.12-11.12,6.72-4.32,1.6-9.1,2.4-14.32,2.4h-30.25v46.89h-12.16v-113.95h42.41c5.23,0,10,.77,14.32,2.32,4.32,1.55,8.03,3.79,11.12,6.72,3.09,2.94,5.49,6.46,7.2,10.56,1.71,4.11,2.56,8.72,2.56,13.84s-.86,9.76-2.56,13.92ZM1179.71,186.19c-4.48-3.73-10.3-5.6-17.44-5.6h-29.13v45.29h29.13c7.15,0,12.96-1.89,17.44-5.68,4.48-3.79,6.72-9.47,6.72-17.04s-2.24-13.23-6.72-16.96Z"/><path class="cls-2" d="M1297.02,242.61c-.11,4.54-.51,8.59-1.2,12.16-.7,3.58-1.76,6.8-3.2,9.68-1.44,2.88-3.5,5.66-6.16,8.32-3.84,3.84-8.22,6.78-13.12,8.8-4.91,2.03-10.24,3.04-16,3.04-11.52,0-21.23-3.95-29.13-11.84-2.67-2.67-4.72-5.44-6.16-8.32-1.44-2.88-2.51-6.11-3.2-9.68-.7-3.57-1.1-7.63-1.2-12.16-.11-4.53-.16-9.84-.16-15.92s.05-11.39.16-15.92c.11-4.53.51-8.59,1.2-12.16.69-3.57,1.76-6.8,3.2-9.68,1.44-2.88,3.49-5.65,6.16-8.32,7.89-7.89,17.6-11.84,29.13-11.84s21.23,3.95,29.13,11.84c2.67,2.67,4.72,5.44,6.16,8.32,1.44,2.88,2.51,6.11,3.2,9.68.69,3.58,1.09,7.63,1.2,12.16.11,4.54.16,9.84.16,15.92s-.05,11.39-.16,15.92ZM1284.77,211.56c-.16-4.11-.51-7.6-1.04-10.48-.53-2.88-1.33-5.36-2.4-7.44-1.07-2.08-2.51-4.03-4.32-5.84-2.46-2.56-5.42-4.56-8.88-6-3.47-1.44-7.07-2.16-10.8-2.16s-7.34.72-10.8,2.16c-3.47,1.44-6.43,3.44-8.88,6-1.81,1.82-3.25,3.76-4.32,5.84-1.07,2.08-1.87,4.56-2.4,7.44-.54,2.88-.88,6.38-1.04,10.48-.16,4.11-.24,9.15-.24,15.12s.08,11.02.24,15.12c.16,4.11.51,7.6,1.04,10.48.53,2.88,1.33,5.36,2.4,7.44,1.07,2.08,2.51,4.03,4.32,5.84,2.45,2.56,5.41,4.56,8.88,6,3.47,1.44,7.07,2.16,10.8,2.16s7.33-.72,10.8-2.16c3.47-1.44,6.43-3.44,8.88-6,1.81-1.81,3.25-3.76,4.32-5.84,1.07-2.08,1.87-4.56,2.4-7.44.53-2.88.88-6.37,1.04-10.48.16-4.11.24-9.15.24-15.12s-.08-11.01-.24-15.12Z"/><path class="cls-2" d="M1398.48,283.65l-60.49-91.38v91.38h-12.16v-113.95h11.52l60.49,91.06v-91.06h12.16v113.95h-11.52Z"/><rect class="cls-2" x="809.24" y="35.03" width="38.58" height="14.35" transform="translate(870.74 -786.32) rotate(90)"/><rect class="cls-2" x="806.16" y="305.72" width="5.3" height="57.1" transform="translate(-31.82 577.71) rotate(-38.61)"/><path class="cls-2" d="M835,355.64l-11.15,8.9-41.03-51.39c3.26-2.2,6.42-4.65,9.43-7.35.58-.52,1.15-1.04,1.71-1.57l41.04,51.4Z"/><path class="cls-2" d="M798.42,334.12c-18.71,19.94-43.98,33.98-73.04,38.38-68.83,10.42-133.29-37.1-143.71-105.93-7.91-52.27,17.6-102.03,60.48-127.5l-9.31-11.62s-.02.01-.04.02c-15.54,9.53-28.92,21.84-39.78,36.57-10.86,14.73-18.66,31.16-23.16,48.82-4.67,18.29-5.59,37.1-2.74,55.92,2.85,18.81,9.3,36.51,19.17,52.6,9.53,15.54,21.84,28.92,36.57,39.78,14.73,10.86,31.16,18.66,48.82,23.16,18.29,4.67,37.1,5.59,55.92,2.74,18.81-2.85,36.51-9.3,52.6-19.17,10.14-6.22,19.37-13.63,27.57-22.12l-9.33-11.65Z"/><polygon class="cls-2" points="833.17 32.02 571.85 32.02 664.82 148.47 660.68 151.78 565.06 32.02 560.83 26.72 833.17 26.72 833.17 32.02"/><path class="cls-2" d="M837.65,36.51h-256.49l.14.17,89.24,111.77c-3.53,2.33-6.94,4.94-10.18,7.85-.35.32-.7.63-1.05.96l-91.06-114.05-10.23-12.82c.17-3.19,1.54-6.06,3.68-8.15h275.96v14.27Z"/><path class="cls-2" d="M582.67,31.04c0,.33-.01.66-.04.98-.13,1.6-.56,3.12-1.24,4.49-.03.06-.06.12-.09.17-.71,1.38-1.68,2.62-2.84,3.63-1.35,1.18-2.95,2.07-4.72,2.58-1.08.31-2.23.48-3.41.48-.71,0-1.41-.06-2.09-.18-5.82-.99-10.25-6.06-10.25-12.16,0-.22,0-.44.02-.66.17-3.19,1.54-6.06,3.68-8.15,2.22-2.18,5.27-3.53,8.64-3.53s6.41,1.35,8.64,3.53c1.28,1.25,2.28,2.78,2.92,4.49.5,1.34.78,2.8.78,4.32Z"/><path class="cls-8" d="M570.33,44.37c-.76,0-1.51-.06-2.25-.19-6.42-1.09-11.07-6.62-11.07-13.14,0-.24,0-.47.02-.71.17-3.34,1.59-6.46,3.98-8.81,2.51-2.46,5.82-3.81,9.33-3.81s6.82,1.35,9.33,3.81c1.39,1.36,2.48,3.03,3.16,4.85.56,1.49.84,3.06.84,4.67,0,.34-.01.7-.04,1.06-.13,1.7-.58,3.33-1.34,4.85-.02.05-.06.13-.1.2-.76,1.48-1.79,2.8-3.06,3.91-1.47,1.29-3.23,2.25-5.1,2.79-1.19.34-2.43.52-3.69.52ZM570.33,19.7c-2.99,0-5.81,1.15-7.94,3.25-2.04,1.99-3.24,4.65-3.38,7.49-.01.2-.02.4-.02.61,0,5.55,3.96,10.25,9.43,11.18,1.68.29,3.43.19,5.06-.28,1.59-.46,3.09-1.28,4.34-2.38,1.08-.94,1.96-2.07,2.61-3.34.03-.06.05-.1.07-.14.65-1.32,1.04-2.71,1.15-4.15.02-.3.04-.61.04-.9,0-1.37-.24-2.7-.72-3.97-.58-1.54-1.5-2.97-2.69-4.12-2.14-2.09-4.96-3.25-7.94-3.25Z"/><circle class="cls-2" cx="829.1" cy="31.04" r="12.34"/><path class="cls-8" d="M829.1,44.37c-7.35,0-13.33-5.98-13.33-13.33s5.98-13.33,13.33-13.33,13.33,5.98,13.33,13.33-5.98,13.33-13.33,13.33ZM829.1,19.7c-6.26,0-11.35,5.09-11.35,11.34s5.09,11.34,11.35,11.34,11.34-5.09,11.34-11.34-5.09-11.34-11.34-11.34Z"/><circle class="cls-5" cx="642.56" cy="128.38" r="12.34"/><path class="cls-8" d="M642.56,141.71c-7.35,0-13.33-5.98-13.33-13.33s5.98-13.33,13.33-13.33,13.33,5.98,13.33,13.33-5.98,13.33-13.33,13.33ZM642.56,117.04c-6.26,0-11.35,5.09-11.35,11.34s5.09,11.34,11.35,11.34,11.34-5.09,11.34-11.34-5.09-11.34-11.34-11.34Z"/><circle class="cls-7" cx="808.53" cy="334.06" r="12.34"/><path class="cls-8" d="M808.53,347.39c-7.35,0-13.33-5.98-13.33-13.33s5.98-13.33,13.33-13.33,13.33,5.98,13.33,13.33-5.98,13.33-13.33,13.33ZM808.53,322.72c-6.26,0-11.34,5.09-11.34,11.34s5.09,11.34,11.34,11.34,11.34-5.09,11.34-11.34-5.09-11.34-11.34-11.34Z"/><path class="cls-3" d="M609.09,324.53c0,.33-.01.66-.04.98-.13,1.6-.56,3.12-1.24,4.49-.03.06-.06.12-.09.17-.71,1.38-1.68,2.62-2.84,3.63-1.35,1.18-2.95,2.07-4.72,2.58-1.08.31-2.23.48-3.41.48-.71,0-1.41-.06-2.09-.18-5.82-.99-10.25-6.06-10.25-12.16,0-.22,0-.44.02-.66.17-3.19,1.54-6.06,3.68-8.15,2.22-2.18,5.27-3.53,8.64-3.53s6.41,1.35,8.64,3.53c1.28,1.25,2.28,2.78,2.92,4.49.5,1.34.78,2.8.78,4.32Z"/><path class="cls-8" d="M596.76,337.86c-.76,0-1.52-.06-2.25-.19-6.42-1.09-11.07-6.61-11.07-13.14,0-.24,0-.47.02-.71.17-3.34,1.59-6.47,3.98-8.81,2.51-2.46,5.82-3.81,9.33-3.81s6.82,1.35,9.33,3.81c1.39,1.36,2.48,3.03,3.16,4.85.56,1.49.84,3.06.84,4.67,0,.34-.01.7-.04,1.06-.13,1.7-.58,3.33-1.34,4.85-.03.05-.06.13-.1.21-.76,1.48-1.79,2.8-3.06,3.91-1.47,1.29-3.23,2.25-5.1,2.79-1.19.34-2.43.52-3.69.52ZM596.76,313.19c-2.99,0-5.81,1.15-7.94,3.25-2.04,1.99-3.24,4.65-3.38,7.49-.01.2-.02.4-.02.61,0,5.55,3.96,10.25,9.42,11.18,1.67.29,3.43.19,5.06-.28,1.59-.46,3.09-1.28,4.34-2.38,1.08-.94,1.96-2.07,2.61-3.34.03-.06.05-.1.07-.14.65-1.32,1.03-2.7,1.15-4.14.02-.3.04-.61.04-.9,0-1.37-.24-2.7-.72-3.97-.58-1.54-1.5-2.97-2.69-4.12-2.13-2.09-4.96-3.25-7.94-3.25Z"/><path class="cls-6" d="M820.29,217.13c-.22-.03-.44-.12-.65-.09-1.21.18-2.42.37-3.63.56-3.87.59-7.75,1.19-11.62,1.8-11.44,1.8-22.87,3.63-34.31,5.43-8.35,1.31-16.7,2.58-25.06,3.86-4.12.63-8.23,1.26-12.35,1.89-1.98.3-3.96.61-5.95.91-.63-.8-1.25-1.6-1.87-2.39-.57-.73-1.14-1.46-1.7-2.19-1.3-1.67-2.61-3.33-3.93-4.98-3.85-4.81-7.74-9.58-11.6-14.37-3.64-4.52-7.26-9.05-10.89-13.57-3.05-3.8-6.1-7.58-9.14-11.38-2.27-2.85-4.52-5.72-6.79-8.57-2.77-3.48-5.54-6.98-8.34-10.45-.14-.17-.27-.34-.41-.51-.12-.16-.25-.31-.37-.47-.26-.32-.51-.65-.77-.97-.16-.2-.32-.4-.47-.6-.06-.07-.12-.15-.18-.22-.16-.2-.32-.4-.48-.59-.13-.16-.27-.33-.41-.49-.05-.06-.11-.13-.16-.2-.17-.21-.36-.42-.53-.62-.21-.24-.43-.48-.65-.71-.02-.02-.04-.05-.06-.07-.22-.23-.44-.46-.67-.68.56-.67,1.4-.49,2.1-.6,1.21-.19,2.43-.38,3.64-.57,11.77-1.85,23.56-3.65,35.33-5.49,13.61-2.11,27.22-4.25,40.82-6.38,3.31-.52,6.62-1.03,9.92-1.59,1.25-.22,2.16-.01,3.01,1.08,3.56,4.59,7.22,9.12,10.84,13.67,9.1,11.39,18.2,22.79,27.3,34.17,5.79,7.23,11.59,14.44,17.38,21.67.73.9,1.45,1.8,2.17,2.71.23.29.68.51.45,1.01Z"/><path class="cls-9" d="M726.72,231.49c-.62-.8-1.25-1.6-1.87-2.39-.57-.73-1.14-1.46-1.7-2.19-1.3-1.67-2.61-3.33-3.93-4.98-3.85-4.81-7.74-9.57-11.6-14.37-3.64-4.51-7.27-9.04-10.9-13.57-3.05-3.79-6.1-7.58-9.14-11.38-2.27-2.84-4.52-5.72-6.79-8.57-2.77-3.48-5.54-6.98-8.33-10.44-.14-.17-.27-.34-.41-.51-.12-.16-.25-.31-.37-.47-.26-.32-.51-.65-.77-.97-.15-.2-.31-.4-.47-.6-.06-.07-.12-.15-.18-.23-.16-.2-.32-.4-.48-.59-.13-.16-.27-.32-.41-.49-.05-.06-.11-.13-.16-.2-.18-.21-.36-.42-.54-.62-.22-.25-.43-.48-.65-.71-.02-.02-.04-.05-.06-.07-.22-.23-.44-.46-.67-.68-.2.45-.42.89-.59,1.35-.56,1.42-1.12,2.85-1.68,4.28-7.49,19.07-14.96,38.14-22.45,57.21-.76,1.95-1.52,3.89-2.29,5.83-2.35,5.98-4.72,11.96-7.08,17.94-.31.8-.43,1.42.2,2.21.92,1.14,1.85,2.29,2.76,3.43,4.21,5.24,8.38,10.51,12.59,15.75,8.12,10.12,16.26,20.24,24.37,30.36,2.11,2.63,4.22,5.27,6.33,7.9,2.99,3.73,5.97,7.47,8.96,11.21,1.05,1.32,2.1,2.63,3.16,3.95.31.39.59.83,1.2.57-.35-.67.11-1.22.32-1.77,2.21-5.67,4.42-11.34,6.64-17.02,0-.01.02-.06.04-.12,2.94-7.84,10.44-27.17,26.94-69.06ZM720.74,233.03l-1.89,4.78h0s-22.88,57.97-22.88,57.97l-52.21-65.31,24.83-62.91,52.15,65.47h0Z"/><polygon class="cls-6" points="720.74 233.02 720.74 233.03 718.85 237.8 718.85 237.81 695.97 295.77 643.76 230.46 668.58 167.55 720.74 233.02"/><path class="cls-9" d="M819.64,217.04c-1.21.18-2.42.37-3.63.56-3.88.59-7.75,1.19-11.62,1.8-11.44,1.81-22.87,3.63-34.31,5.43-8.35,1.31-16.7,2.58-25.06,3.86-4.11.63-8.23,1.26-12.35,1.89-1.98.3-3.96.61-5.94.91-.71,1.82-1.42,3.64-2.13,5.45-.08.21-.16.42-.25.62-8.19,20.99-16.38,41.98-24.57,62.98l.08.1h-.12c-2.22,5.69-4.43,11.36-6.64,17.03-.22.55-.68,1.1-.32,1.77.23,0,.45,0,.66-.03,1.48-.23,2.96-.45,4.44-.68,4.88-.75,9.76-1.5,14.64-2.25,3.24-.5,6.49-1,9.73-1.51,19.65-3.06,39.29-6.14,58.94-9.18,1.12-.17,2.23-.34,3.35-.52.83-.13,1.36-.35,1.7-1.21,2.27-5.82,4.55-11.64,6.82-17.46,5.63-14.39,11.27-28.78,16.92-43.17.04-.08.07-.17.11-.26,2.26-5.71,4.53-11.42,6.77-17.14.42-1.06.83-2.12,1.23-3.18.73-1.91,1.46-3.82,2.19-5.73-.22-.03-.44-.12-.65-.09ZM788.5,287.3l-83.16,12.51,22.73-57.59,2.44-6.18,83.16-12.52-25.17,63.77Z"/><polygon class="cls-6" points="813.66 223.53 788.5 287.3 705.34 299.82 728.07 242.23 730.51 236.05 813.66 223.53"/><path class="cls-2" d="M670.38,157.6c.11.12.23.25.34.38l.14.16c.14.16.28.32.41.48.02.02.05.06.08.1l.07.08c.15.17.29.34.43.51.16.19.32.39.48.59.03.03.06.07.09.11l.17.22c.13.16.26.33.39.49l.75.95c.12.16.24.3.35.45.07.09.14.17.21.26.06.08.13.16.2.24,2.16,2.67,4.32,5.4,6.42,8.04l1.81,2.28c.97,1.22,1.93,2.44,2.89,3.66,1.25,1.58,2.53,3.21,3.81,4.8,1.92,2.4,3.85,4.8,5.78,7.2,1.08,1.34,2.16,2.69,3.24,4.03,1.29,1.61,2.58,3.21,3.86,4.82,2.29,2.86,4.58,5.72,6.88,8.57,1.57,1.95,3.15,3.9,4.73,5.85,2.21,2.73,4.49,5.55,6.72,8.34,1.13,1.41,2.33,2.93,3.88,4.92l.73.93c.32.41.64.82.96,1.23l.79,1.01c.23.3.47.6.7.9.8-.12,1.59-.24,2.39-.37.97-.15,1.94-.3,2.92-.45,4.06-.62,8.13-1.24,12.19-1.87,2.02-.31,4.04-.62,6.06-.93,6.12-.94,12.45-1.91,18.66-2.88,6.58-1.03,13.26-2.09,19.73-3.12,4.71-.75,9.42-1.49,14.13-2.24,3.59-.57,7.34-1.15,11.47-1.78.91-.14,1.82-.28,2.74-.42-.57-.71-1.14-1.43-1.72-2.14-2.63-3.28-5.25-6.55-7.88-9.82-3.09-3.85-6.19-7.71-9.28-11.57-7.38-9.23-14.75-18.46-22.13-27.69l-4.82-6.04c-.8-1-1.6-2-2.4-3-2.74-3.43-5.58-6.97-8.31-10.5-.55-.71-1.04-.88-2.04-.71-2.99.51-6.03.99-8.97,1.45l-.83.13c-13.2,2.07-26.85,4.21-40.29,6.3-4.54.71-9.09,1.41-13.63,2.11-6.96,1.08-14.16,2.19-21.24,3.3-.6.09-1.2.19-1.8.28-.6.09-1.2.19-1.79.28-.16.03-.32.04-.47.05ZM819.04,216.95h0,0ZM819.12,216.95s0,0,0,0c0,0,0,0,0,0ZM667.41,157.36l.55.52c.21.2.42.42.64.65l.05.06c.21.22.41.44.61.66l.14.16c.13.15.25.29.39.45l.07.08s.06.08.09.11c.13.15.26.31.4.48.16.19.31.37.47.57l.08.1s.06.08.09.11l.08.11c.13.16.25.31.38.48l.75.95c.12.15.24.31.36.46l.02.02c.06.08.13.16.19.24.07.08.14.17.2.25,2.15,2.66,4.32,5.39,6.41,8.02l1.81,2.28c.97,1.22,1.93,2.43,2.89,3.65,1.25,1.58,2.54,3.21,3.81,4.81,1.92,2.4,3.85,4.8,5.78,7.2,1.08,1.34,2.16,2.69,3.24,4.03,1.29,1.6,2.58,3.21,3.86,4.82,2.29,2.86,4.58,5.72,6.89,8.57,1.57,1.95,3.15,3.9,4.73,5.85,2.21,2.73,4.49,5.54,6.72,8.33,1.13,1.41,2.32,2.92,3.87,4.9l.72.93c.32.41.64.82.96,1.23l.79,1.01c.35.45.7.9,1.05,1.35l.35.45h.08s.48-.08.48-.08c.99-.15,1.97-.3,2.95-.45.97-.15,1.94-.3,2.92-.44,4.07-.62,8.13-1.25,12.19-1.87,2.02-.31,4.04-.62,6.06-.93,6.12-.94,12.45-1.91,18.67-2.88,6.58-1.03,13.27-2.09,19.73-3.12,4.71-.75,9.42-1.49,14.13-2.24,3.59-.57,7.34-1.15,11.46-1.78,1.18-.18,2.35-.36,3.53-.54.03,0,.07.02.11.02.1.02.2.05.29.06l.72.11.3-.67c.46-1-.24-1.69-.47-1.91-.03-.03-.08-.08-.1-.1-.71-.89-1.43-1.79-2.15-2.67-2.62-3.27-5.25-6.54-7.87-9.81-3.09-3.86-6.19-7.71-9.28-11.57-7.38-9.23-14.75-18.46-22.12-27.69l-4.82-6.04c-.8-1-1.6-2-2.4-3-2.74-3.42-5.57-6.96-8.3-10.48-1.28-1.65-2.76-1.63-3.91-1.43-2.97.51-6.01.98-8.94,1.44l-.83.13c-13.2,2.07-26.85,4.21-40.29,6.3-4.54.71-9.09,1.41-13.63,2.11-6.96,1.08-14.16,2.19-21.24,3.3-.6.1-1.2.19-1.8.28-.6.1-1.2.19-1.8.28-.13.02-.28.03-.45.04-.55.03-1.34.07-2,.66-.08.07-.16.15-.23.24l-.26.32-.21.48Z"/><polygon class="cls-4" points="782.98 287.14 711.7 297.86 734.09 241.14 805.36 230.41 782.98 287.14"/><path class="cls-2" d="M751.61,281.68l-3.76-25.96.48-.62c2.28-2.97,6.14-7.18,11.61-10.39,1.63-.96,4.37-2.57,7.47-3.04h.02c3.09-.46,4.81.47,5.84,1.03,3.45,1.88,4.27,5.38,4.35,7.99l.02.55-26.02,30.44ZM750.92,255.15l2.99,20.67,20.72-24.24c-.16-2.17-.97-4.85-3.68-6.33-.95-.52-2.26-1.23-4.61-.88h-.02c-2.36.36-4.52,1.63-5.95,2.47-4.29,2.53-7.45,5.81-9.45,8.3Z"/><path class="cls-5" d="M765.41,251.44c-.42,1.08-1.65,2.08-2.73,2.24s-1.62-.58-1.19-1.65c.42-1.08,1.65-2.08,2.73-2.24s1.62.58,1.19,1.65Z"/><path class="cls-3" d="M763.02,257.51c-.42,1.08-1.65,2.08-2.73,2.24s-1.62-.58-1.19-1.65c.42-1.08,1.65-2.08,2.73-2.24s1.62.58,1.19,1.65Z"/><path class="cls-1" d="M760.62,263.58c-.42,1.08-1.65,2.08-2.73,2.24s-1.62-.58-1.19-1.65c.42-1.08,1.65-2.08,2.73-2.24s1.62.58,1.19,1.65Z"/><polygon class="cls-4" points="692.66 290.07 647.91 234.09 669.99 178.14 714.7 234.25 692.66 290.07"/><path class="cls-2" d="M674.51,251.46l1.62-39.5.38-.38c1.83-1.82,4.8-3.78,8.59-2.78,1.13.3,3.03.8,4.97,3.24v.02c1.95,2.44,2.85,5.44,3.38,7.23,1.8,6.01,1.77,11.66,1.43,15.33l-.07.77-20.3,16.07ZM678.08,214.23l-1.29,31.45,16.17-12.8c.23-3.15.14-7.65-1.27-12.37-.5-1.66-1.18-3.93-2.65-5.79h0c-1.48-1.87-2.98-2.27-3.97-2.53-2.98-.79-5.38.59-6.97,2.04Z"/><path class="cls-5" d="M687.41,223.53c-.42,1.06-1.31,1.23-1.99.38s-.89-2.4-.47-3.46,1.31-1.23,1.99-.38c.68.85.89,2.4.47,3.46Z"/><path class="cls-3" d="M685.05,229.51c-.42,1.06-1.31,1.23-1.99.38-.68-.85-.89-2.4-.47-3.46s1.31-1.23,1.99-.38c.68.85.89,2.4.47,3.46Z"/><path class="cls-1" d="M682.69,235.49c-.42,1.06-1.31,1.23-1.99.38s-.89-2.4-.47-3.46,1.31-1.23,1.99-.38c.68.85.89,2.4.47,3.46Z"/><polygon class="cls-2" points="817.97 215.15 728.44 229.82 670.86 158.13 761.06 143.7 817.97 215.15"/><path class="cls-6" d="M769.68,182.73c8.75,10.96,4.7,21.65-9.05,23.89-13.77,2.24-32.07-4.83-40.87-15.81-8.82-11-4.75-21.73,9.07-23.95,13.81-2.22,32.09,4.89,40.85,15.87Z"/><path class="cls-5" d="M768.49,183.01c8.31,10.41,4.46,20.57-8.6,22.7-13.08,2.13-30.47-4.59-38.83-15.02-8.37-10.45-4.51-20.64,8.62-22.75,13.11-2.11,30.49,4.64,38.81,15.07Z"/><path class="cls-3" d="M762.21,183.95c6.13,7.68,3.29,15.16-6.34,16.73-9.64,1.57-22.45-3.39-28.61-11.07-6.16-7.69-3.32-15.2,6.35-16.76,9.66-1.56,22.46,3.42,28.6,11.1Z"/><path class="cls-1" d="M757.24,184.78c4.38,5.49,2.36,10.83-4.53,11.95s-16.04-2.42-20.43-7.91c-4.4-5.49-2.37-10.85,4.53-11.97s16.04,2.44,20.43,7.93Z"/><path class="cls-6" d="M751.02,185.8c2.19,2.74,1.18,5.42-2.26,5.98-3.45.56-8.02-1.21-10.22-3.96s-1.18-5.42,2.27-5.98,8.02,1.22,10.22,3.96Z"/></svg>