<?xml version="1.0" encoding="UTF-8"?><svg id="Calque_1" xmlns="http://www.w3.org/2000/svg" viewBox="0 0 974 916"><defs><style>.cls-1{fill:#296032;}.cls-1,.cls-2,.cls-3,.cls-4,.cls-5,.cls-6,.cls-7,.cls-8{stroke-width:0px;}.cls-2,.cls-9{fill:#000;}.cls-3{fill:#fdbb30;}.cls-4{fill:none;}.cls-5{fill:#002d62;}.cls-9{stroke:#fff;stroke-miterlimit:10;}.cls-6{fill:#f2f1eb;}.cls-7{fill:#296032;}.cls-8{fill:#fff;}</style></defs><path class="cls-2" d="M118.15,812.62c-1.45,3.53-3.49,6.52-6.12,8.97-2.63,2.45-5.77,4.35-9.44,5.71-3.67,1.36-7.72,2.04-12.16,2.04h-25.68v39.81h-10.33v-96.75h36.01c4.44,0,8.49.66,12.16,1.97,3.67,1.31,6.82,3.22,9.44,5.71,2.63,2.49,4.67,5.48,6.12,8.97,1.45,3.49,2.17,7.41,2.17,11.75s-.73,8.29-2.17,11.82ZM104.29,786.4c-3.8-3.17-8.74-4.76-14.81-4.76h-24.73v38.46h24.73c6.07,0,11.01-1.61,14.81-4.82,3.8-3.21,5.71-8.04,5.71-14.47s-1.9-11.23-5.71-14.4Z"/><path class="cls-2" d="M196.28,869.15v-44.16h-45.93v44.16h-10.33v-96.75h10.33v43.35h45.93v-43.35h10.33v96.75h-10.33Z"/><path class="cls-2" d="M298.47,834.3c-.09,3.85-.43,7.29-1.02,10.33-.59,3.04-1.49,5.77-2.72,8.22-1.22,2.45-2.97,4.8-5.23,7.07-3.26,3.26-6.98,5.75-11.14,7.47-4.17,1.72-8.7,2.58-13.59,2.58-9.78,0-18.03-3.35-24.73-10.06-2.27-2.26-4.01-4.62-5.23-7.07-1.22-2.45-2.13-5.18-2.72-8.22-.59-3.03-.93-6.48-1.02-10.33-.09-3.85-.14-8.36-.14-13.52s.04-9.67.14-13.52c.09-3.85.43-7.29,1.02-10.33.59-3.03,1.5-5.78,2.72-8.22,1.22-2.45,2.97-4.8,5.23-7.07,6.7-6.7,14.95-10.05,24.73-10.05s18.03,3.35,24.73,10.05c2.26,2.27,4.01,4.62,5.23,7.07,1.22,2.45,2.13,5.19,2.72,8.22.59,3.04.93,6.48,1.02,10.33.09,3.85.14,8.36.14,13.52s-.05,9.67-.14,13.52ZM288.07,807.93c-.14-3.49-.43-6.45-.88-8.9-.45-2.45-1.13-4.55-2.04-6.32-.91-1.77-2.13-3.42-3.67-4.96-2.08-2.17-4.6-3.87-7.54-5.1-2.94-1.22-6-1.83-9.17-1.83s-6.23.61-9.17,1.83c-2.94,1.22-5.46,2.92-7.54,5.1-1.54,1.54-2.76,3.19-3.67,4.96-.91,1.77-1.59,3.87-2.04,6.32-.45,2.45-.75,5.41-.88,8.9-.14,3.49-.2,7.77-.2,12.84s.07,9.35.2,12.84c.14,3.49.43,6.46.88,8.9.45,2.45,1.13,4.55,2.04,6.32.9,1.77,2.13,3.42,3.67,4.96,2.08,2.17,4.6,3.87,7.54,5.1,2.94,1.22,6,1.83,9.17,1.83s6.23-.61,9.17-1.83c2.94-1.22,5.46-2.92,7.54-5.1,1.54-1.54,2.76-3.19,3.67-4.96.9-1.77,1.58-3.87,2.04-6.32.45-2.45.75-5.41.88-8.9.14-3.49.2-7.77.2-12.84s-.07-9.35-.2-12.84Z"/><path class="cls-2" d="M348.61,781.64v87.51h-10.33v-87.51h-27.99v-9.24h66.31v9.24h-27.99Z"/><path class="cls-2" d="M455.82,834.3c-.09,3.85-.43,7.29-1.02,10.33-.59,3.04-1.5,5.77-2.72,8.22-1.22,2.45-2.97,4.8-5.23,7.07-3.26,3.26-6.98,5.75-11.14,7.47-4.17,1.72-8.7,2.58-13.59,2.58-9.78,0-18.03-3.35-24.73-10.06-2.27-2.26-4.01-4.62-5.23-7.07-1.22-2.45-2.13-5.18-2.72-8.22-.59-3.03-.93-6.48-1.02-10.33-.09-3.85-.14-8.36-.14-13.52s.04-9.67.14-13.52c.09-3.85.43-7.29,1.02-10.33.59-3.03,1.5-5.78,2.72-8.22,1.22-2.45,2.96-4.8,5.23-7.07,6.7-6.7,14.95-10.05,24.73-10.05s18.03,3.35,24.73,10.05c2.26,2.27,4.01,4.62,5.23,7.07,1.22,2.45,2.13,5.19,2.72,8.22.59,3.04.93,6.48,1.02,10.33.09,3.85.13,8.36.13,13.52s-.05,9.67-.13,13.52ZM445.42,807.93c-.13-3.49-.43-6.45-.88-8.9-.46-2.45-1.13-4.55-2.04-6.32-.91-1.77-2.13-3.42-3.67-4.96-2.08-2.17-4.6-3.87-7.54-5.1-2.95-1.22-6-1.83-9.17-1.83s-6.23.61-9.17,1.83c-2.95,1.22-5.46,2.92-7.54,5.1-1.54,1.54-2.76,3.19-3.67,4.96-.91,1.77-1.59,3.87-2.04,6.32-.46,2.45-.75,5.41-.88,8.9-.14,3.49-.21,7.77-.21,12.84s.07,9.35.21,12.84c.13,3.49.43,6.46.88,8.9.45,2.45,1.13,4.55,2.04,6.32.9,1.77,2.13,3.42,3.67,4.96,2.08,2.17,4.6,3.87,7.54,5.1,2.94,1.22,6,1.83,9.17,1.83s6.23-.61,9.17-1.83c2.94-1.22,5.46-2.92,7.54-5.1,1.54-1.54,2.76-3.19,3.67-4.96.9-1.77,1.58-3.87,2.04-6.32.45-2.45.75-5.41.88-8.9.14-3.49.21-7.77.21-12.84s-.07-9.35-.21-12.84Z"/><path class="cls-2" d="M552.84,869.15v-73.51l-26.5,58.29h-8.83l-26.91-58.29v73.51h-10.33v-96.75h10.33l31.53,68.62,30.71-68.62h10.33v96.75h-10.33Z"/><path class="cls-2" d="M647.54,869.15l-7.75-21.88h-42.26l-7.74,21.88h-11.01l35.6-96.75h8.7l35.46,96.75h-11.01ZM618.87,787.21l-18.21,51.09h36.14l-17.94-51.09Z"/><path class="cls-2" d="M737.9,812.62c-1.45,3.53-3.49,6.52-6.12,8.97-2.63,2.45-5.78,4.35-9.44,5.71-3.67,1.36-7.72,2.04-12.16,2.04h-25.68v39.81h-10.33v-96.75h36.01c4.44,0,8.49.66,12.16,1.97,3.67,1.31,6.81,3.22,9.44,5.71,2.63,2.49,4.66,5.48,6.12,8.97,1.45,3.49,2.17,7.41,2.17,11.75s-.73,8.29-2.17,11.82ZM724.04,786.4c-3.8-3.17-8.74-4.76-14.81-4.76h-24.73v38.46h24.73c6.07,0,11.01-1.61,14.81-4.82,3.8-3.21,5.71-8.04,5.71-14.47s-1.9-11.23-5.71-14.4Z"/><path class="cls-2" d="M823.64,834.3c-.09,3.85-.43,7.29-1.02,10.33-.59,3.04-1.5,5.77-2.72,8.22-1.22,2.45-2.97,4.8-5.23,7.07-3.26,3.26-6.98,5.75-11.14,7.47-4.17,1.72-8.7,2.58-13.59,2.58-9.78,0-18.03-3.35-24.73-10.06-2.27-2.26-4.01-4.62-5.23-7.07-1.22-2.45-2.13-5.18-2.72-8.22-.59-3.03-.93-6.48-1.02-10.33-.09-3.85-.13-8.36-.13-13.52s.04-9.67.13-13.52c.09-3.85.43-7.29,1.02-10.33.59-3.03,1.49-5.78,2.72-8.22,1.22-2.45,2.97-4.8,5.23-7.07,6.7-6.7,14.95-10.05,24.73-10.05s18.03,3.35,24.73,10.05c2.26,2.27,4.01,4.62,5.23,7.07,1.22,2.45,2.13,5.19,2.72,8.22.59,3.04.93,6.48,1.02,10.33.09,3.85.13,8.36.13,13.52s-.05,9.67-.13,13.52ZM813.25,807.93c-.13-3.49-.43-6.45-.88-8.9-.46-2.45-1.13-4.55-2.04-6.32-.91-1.77-2.13-3.42-3.67-4.96-2.08-2.17-4.6-3.87-7.54-5.1-2.95-1.22-6-1.83-9.17-1.83s-6.23.61-9.17,1.83c-2.95,1.22-5.46,2.92-7.54,5.1-1.54,1.54-2.77,3.19-3.67,4.96-.91,1.77-1.59,3.87-2.04,6.32-.46,2.45-.75,5.41-.88,8.9-.13,3.49-.2,7.77-.2,12.84s.07,9.35.2,12.84c.14,3.49.43,6.46.88,8.9.45,2.45,1.13,4.55,2.04,6.32.9,1.77,2.13,3.42,3.67,4.96,2.08,2.17,4.6,3.87,7.54,5.1,2.94,1.22,6,1.83,9.17,1.83s6.23-.61,9.17-1.83c2.94-1.22,5.46-2.92,7.54-5.1,1.54-1.54,2.76-3.19,3.67-4.96.9-1.77,1.58-3.87,2.04-6.32.45-2.45.75-5.41.88-8.9.14-3.49.21-7.77.21-12.84s-.07-9.35-.21-12.84Z"/><path class="cls-2" d="M909.79,869.15l-51.36-77.59v77.59h-10.33v-96.75h9.78l51.36,77.32v-77.32h10.33v96.75h-9.78Z"/><rect class="cls-2" x="680.37" y="67.12" width="68.12" height="25.35" transform="translate(794.22 -634.64) rotate(90)"/><rect class="cls-2" x="674.94" y="545.07" width="9.36" height="100.83" transform="translate(-223.03 554.19) rotate(-38.61)"/><path class="cls-2" d="M725.87,633.21l-19.69,15.72-72.45-90.73c5.76-3.89,11.33-8.21,16.66-12.97,1.02-.91,2.03-1.84,3.02-2.78l72.46,90.76Z"/><path class="cls-2" d="M661.27,595.21c-33.03,35.21-77.65,60-128.97,67.77-121.53,18.39-235.35-65.51-253.74-187.04-13.97-92.3,31.07-180.15,106.79-225.13l-16.45-20.52s-.04.03-.06.04c-27.43,16.83-51.06,38.56-70.24,64.57-19.18,26.02-32.94,55.02-40.9,86.2-8.24,32.3-9.87,65.51-4.85,98.73,5.03,33.22,16.41,64.46,33.84,92.87,16.83,27.43,38.56,51.06,64.57,70.24,26.02,19.18,55.02,32.94,86.2,40.9,32.3,8.24,65.51,9.87,98.73,4.85,33.22-5.03,64.46-16.41,92.87-33.84,17.91-10.99,34.2-24.06,48.69-39.06l-16.48-20.57Z"/><polygon class="cls-2" points="722.63 61.8 261.22 61.8 425.39 267.41 418.07 273.25 249.24 61.8 241.77 52.44 722.63 52.44 722.63 61.8"/><path class="cls-2" d="M730.55,69.72h-452.87l.25.31,157.57,197.34c-6.23,4.11-12.25,8.73-17.98,13.85-.63.56-1.24,1.12-1.86,1.69L254.87,81.54l-18.07-22.63c.29-5.63,2.72-10.69,6.5-14.39h487.25v25.2Z"/><path class="cls-2" d="M280.33,60.07c0,.58-.02,1.16-.07,1.73-.22,2.83-.99,5.5-2.19,7.92-.05.1-.1.21-.15.31-1.26,2.44-2.96,4.62-5.01,6.42-2.38,2.09-5.21,3.66-8.34,4.56-1.91.55-3.93.84-6.02.84-1.26,0-2.49-.11-3.68-.31-10.28-1.75-18.1-10.69-18.1-21.47,0-.39.01-.78.03-1.16.29-5.63,2.72-10.69,6.5-14.39,3.93-3.85,9.31-6.23,15.25-6.23s11.32,2.38,15.25,6.23c2.26,2.21,4.03,4.91,5.16,7.92.89,2.37,1.37,4.94,1.37,7.63Z"/><path class="cls-8" d="M258.55,83.6c-1.34,0-2.67-.11-3.98-.34-11.33-1.93-19.55-11.68-19.55-23.19,0-.42.01-.84.03-1.25.31-5.89,2.8-11.41,7.02-15.55,4.43-4.34,10.28-6.73,16.48-6.73s12.05,2.39,16.48,6.73c2.45,2.4,4.38,5.36,5.57,8.56.99,2.63,1.48,5.41,1.48,8.24,0,.61-.02,1.23-.07,1.86-.24,3-1.03,5.88-2.36,8.56-.04.09-.11.22-.18.36-1.34,2.62-3.17,4.95-5.4,6.91-2.59,2.27-5.7,3.98-9,4.93-2.1.61-4.29.91-6.51.91ZM258.55,40.04c-5.28,0-10.26,2.04-14.03,5.73-3.59,3.52-5.72,8.22-5.98,13.23-.02.35-.03.71-.03,1.07,0,9.8,7,18.1,16.64,19.74,2.96.51,6.06.34,8.93-.49,2.81-.81,5.46-2.26,7.66-4.2,1.91-1.67,3.46-3.65,4.61-5.9.05-.1.09-.17.12-.24,1.16-2.33,1.83-4.78,2.03-7.32.04-.54.06-1.08.06-1.59,0-2.41-.43-4.77-1.26-7.01-1.02-2.72-2.66-5.24-4.74-7.28-3.77-3.7-8.75-5.73-14.03-5.73Z"/><circle class="cls-2" cx="715.45" cy="60.07" r="21.78"/><path class="cls-8" d="M715.45,83.6c-12.98,0-23.53-10.56-23.53-23.53s10.56-23.53,23.53-23.53,23.53,10.56,23.53,23.53-10.56,23.53-23.53,23.53ZM715.45,40.04c-11.05,0-20.03,8.99-20.03,20.03s8.99,20.03,20.03,20.03,20.03-8.99,20.03-20.03-8.99-20.03-20.03-20.03Z"/><circle class="cls-5" cx="386.07" cy="231.94" r="21.78"/><path class="cls-8" d="M386.07,255.48c-12.98,0-23.53-10.56-23.53-23.53s10.56-23.53,23.53-23.53,23.53,10.56,23.53,23.53-10.56,23.53-23.53,23.53ZM386.07,211.91c-11.05,0-20.03,8.99-20.03,20.03s8.99,20.03,20.03,20.03,20.03-8.99,20.03-20.03-8.99-20.03-20.03-20.03Z"/><circle class="cls-7" cx="679.13" cy="595.1" r="21.78"/><path class="cls-8" d="M679.13,618.63c-12.98,0-23.53-10.56-23.53-23.53s10.56-23.53,23.53-23.53,23.53,10.56,23.53,23.53-10.56,23.53-23.53,23.53ZM679.13,575.07c-11.04,0-20.03,8.99-20.03,20.03s8.99,20.03,20.03,20.03,20.03-8.99,20.03-20.03-8.99-20.03-20.03-20.03Z"/><path class="cls-3" d="M326.99,578.28c0,.58-.02,1.16-.07,1.73-.22,2.83-.99,5.5-2.19,7.92-.05.1-.1.21-.15.31-1.26,2.44-2.96,4.62-5.01,6.42-2.38,2.09-5.21,3.66-8.34,4.56-1.91.55-3.93.84-6.02.84-1.26,0-2.49-.11-3.68-.31-10.28-1.75-18.1-10.69-18.1-21.47,0-.39.01-.78.03-1.16.29-5.63,2.72-10.69,6.5-14.39,3.93-3.85,9.31-6.23,15.25-6.23s11.32,2.38,15.25,6.23c2.26,2.21,4.03,4.91,5.16,7.92.89,2.37,1.37,4.94,1.37,7.63Z"/><path class="cls-8" d="M305.21,601.81c-1.34,0-2.68-.11-3.98-.34-11.33-1.93-19.55-11.68-19.55-23.19,0-.42.01-.84.03-1.25.31-5.89,2.8-11.42,7.02-15.55,4.43-4.34,10.28-6.73,16.48-6.73s12.05,2.39,16.48,6.73c2.45,2.4,4.38,5.36,5.57,8.56.98,2.63,1.48,5.41,1.48,8.24,0,.61-.02,1.23-.07,1.86-.24,3-1.03,5.88-2.36,8.57-.04.1-.11.23-.18.36-1.34,2.61-3.16,4.94-5.4,6.9-2.59,2.27-5.7,3.98-9,4.93-2.1.61-4.29.91-6.51.91ZM305.21,558.25c-5.28,0-10.26,2.04-14.03,5.73-3.59,3.52-5.72,8.22-5.98,13.23-.02.35-.03.71-.03,1.07,0,9.8,7,18.1,16.64,19.74,2.95.51,6.06.34,8.93-.49,2.81-.81,5.46-2.26,7.66-4.2,1.91-1.66,3.46-3.65,4.61-5.9.06-.11.09-.18.13-.25,1.15-2.32,1.83-4.77,2.03-7.32.04-.54.06-1.08.06-1.59,0-2.41-.42-4.77-1.26-7.01-1.02-2.72-2.66-5.24-4.74-7.28-3.77-3.7-8.75-5.73-14.03-5.73Z"/><path class="cls-6" d="M699.88,388.64c-.39-.06-.78-.22-1.15-.16-2.14.32-4.27.65-6.41.98-6.84,1.04-13.68,2.1-20.52,3.18-20.19,3.19-40.39,6.41-60.58,9.58-14.74,2.31-29.49,4.56-44.24,6.82-7.27,1.11-14.53,2.23-21.81,3.34-3.5.53-7,1.07-10.5,1.6-1.1-1.41-2.2-2.82-3.3-4.23-1.01-1.29-2.01-2.58-3.01-3.86-2.3-2.94-4.6-5.88-6.94-8.79-6.79-8.49-13.67-16.91-20.48-25.38-6.43-7.98-12.82-15.98-19.23-23.96-5.38-6.7-10.77-13.39-16.14-20.1-4.02-5.02-7.98-10.1-11.99-15.14-4.9-6.15-9.77-12.32-14.72-18.44-.24-.3-.48-.6-.72-.9-.22-.27-.44-.55-.65-.82-.45-.57-.9-1.15-1.35-1.72-.27-.35-.56-.71-.83-1.06-.1-.13-.21-.27-.31-.4-.28-.35-.56-.7-.85-1.05-.23-.29-.48-.58-.73-.87-.1-.11-.19-.23-.29-.35-.31-.37-.63-.73-.94-1.1-.38-.43-.76-.84-1.15-1.25-.03-.04-.07-.09-.11-.13-.39-.4-.77-.81-1.18-1.19.98-1.19,2.47-.87,3.71-1.06,2.15-.34,4.28-.67,6.43-1.01,20.79-3.26,41.6-6.45,62.39-9.69,24.03-3.73,48.06-7.5,72.08-11.27,5.84-.91,11.69-1.81,17.52-2.81,2.2-.39,3.82-.02,5.32,1.91,6.29,8.11,12.74,16.11,19.15,24.13,16.06,20.11,32.13,40.23,48.21,60.34,10.23,12.77,20.47,25.5,30.69,38.26,1.28,1.59,2.56,3.19,3.84,4.78.4.51,1.2.9.8,1.79Z"/><path class="cls-9" d="M534.68,413.99c-1.1-1.41-2.2-2.82-3.3-4.22-1.01-1.29-2.01-2.58-3.01-3.86-2.3-2.95-4.61-5.88-6.94-8.8-6.79-8.49-13.67-16.91-20.48-25.38-6.43-7.97-12.83-15.97-19.24-23.96-5.38-6.7-10.77-13.38-16.13-20.1-4.02-5.02-7.99-10.1-12-15.14-4.89-6.15-9.78-12.33-14.71-18.44-.24-.3-.48-.6-.72-.89-.22-.28-.43-.56-.65-.82-.45-.57-.9-1.14-1.35-1.72-.27-.36-.56-.71-.83-1.06-.1-.13-.21-.27-.31-.4-.28-.36-.56-.7-.85-1.05-.23-.29-.48-.57-.73-.87-.1-.11-.19-.23-.29-.35-.31-.37-.63-.74-.95-1.09-.38-.43-.76-.84-1.15-1.25-.03-.04-.08-.1-.11-.13-.39-.41-.78-.81-1.18-1.2-.36.8-.74,1.58-1.05,2.39-.98,2.52-1.98,5.03-2.96,7.56-13.22,33.66-26.41,67.35-39.63,101.01-1.34,3.43-2.69,6.87-4.05,10.3-4.15,10.57-8.33,21.12-12.51,31.68-.56,1.41-.76,2.52.36,3.89,1.63,2.01,3.26,4.04,4.87,6.06,7.42,9.26,14.8,18.55,22.22,27.81,14.33,17.88,28.7,35.74,43.03,53.61,3.73,4.64,7.45,9.3,11.18,13.95,5.27,6.59,10.55,13.18,15.82,19.79,1.86,2.32,3.71,4.65,5.58,6.97.55.69,1.05,1.46,2.13,1.01-.62-1.19.19-2.15.57-3.12,3.9-10.02,7.81-20.03,11.72-30.05,0-.03.04-.1.08-.21,5.19-13.84,18.44-47.98,47.57-121.93ZM524.11,416.71l-3.34,8.43h0s-40.4,102.35-40.4,102.35l-92.19-115.31,43.84-111.08,92.08,115.6h0Z"/><polygon class="cls-6" points="524.11 416.7 524.11 416.71 520.77 425.14 520.77 425.15 480.38 527.5 388.19 412.18 432.03 301.1 524.11 416.7"/><path class="cls-9" d="M698.74,388.49c-2.14.32-4.28.65-6.41.98-6.84,1.04-13.68,2.1-20.52,3.17-20.19,3.19-40.39,6.41-60.58,9.58-14.75,2.32-29.49,4.55-44.25,6.82-7.26,1.12-14.53,2.23-21.81,3.34-3.5.54-7,1.08-10.5,1.6-1.25,3.21-2.51,6.42-3.76,9.63-.15.36-.29.74-.43,1.1-14.46,37.06-28.93,74.13-43.38,111.2l.14.18-.22.03c-3.91,10.02-7.82,20.03-11.72,30.05-.38.97-1.2,1.93-.57,3.12.4-.02.79,0,1.17-.05,2.61-.41,5.22-.8,7.84-1.21,8.61-1.32,17.24-2.65,25.86-3.97,5.72-.88,11.46-1.77,17.18-2.66,34.69-5.4,69.38-10.83,104.06-16.2,1.97-.3,3.94-.61,5.91-.92,1.46-.23,2.4-.62,3-2.13,4.02-10.28,8.03-20.55,12.05-30.83,9.95-25.41,19.91-50.81,29.87-76.23.07-.15.13-.3.2-.46,3.99-10.08,8-20.16,11.96-30.26.74-1.87,1.46-3.74,2.17-5.61,1.29-3.37,2.58-6.75,3.87-10.12-.39-.05-.78-.22-1.14-.16ZM643.76,512.54l-146.83,22.09,40.13-101.68,4.31-10.91,146.83-22.1-44.44,112.6Z"/><polygon class="cls-6" points="688.19 399.94 643.76 512.54 496.93 534.63 537.06 432.96 541.37 422.05 688.19 399.94"/><path class="cls-2" d="M435.21,283.52c.2.22.4.44.6.66l.25.28c.24.28.49.56.72.85.03.04.09.1.14.17l.12.15c.26.3.51.6.75.9.27.33.56.68.85,1.04.05.06.1.13.16.2l.3.38c.23.29.46.58.68.87l1.33,1.68c.21.28.42.53.62.79.13.16.25.31.37.46.11.14.23.29.35.43,3.81,4.71,7.63,9.53,11.34,14.19l3.2,4.02c1.71,2.15,3.41,4.3,5.11,6.46,2.2,2.78,4.47,5.66,6.72,8.48,3.39,4.24,6.79,8.47,10.2,12.71,1.91,2.37,3.82,4.75,5.73,7.12,2.28,2.83,4.55,5.67,6.82,8.51,4.05,5.05,8.09,10.1,12.15,15.13,2.78,3.45,5.56,6.89,8.35,10.33,3.9,4.82,7.93,9.79,11.87,14.72,2,2.49,4.11,5.18,6.86,8.69l1.28,1.65c.56.72,1.12,1.44,1.69,2.17l1.4,1.79c.41.53.82,1.06,1.24,1.59,1.41-.21,2.81-.43,4.22-.65,1.72-.26,3.43-.53,5.15-.79,7.18-1.1,14.35-2.2,21.52-3.29,3.57-.55,7.13-1.09,10.7-1.64,10.8-1.66,21.97-3.37,32.96-5.09,11.61-1.82,23.42-3.69,34.84-5.51,8.32-1.32,16.63-2.64,24.95-3.95,6.34-1,12.97-2.03,20.26-3.14,1.61-.25,3.22-.5,4.83-.74-1.01-1.26-2.02-2.52-3.03-3.77-4.64-5.78-9.27-11.56-13.91-17.33-5.46-6.81-10.93-13.61-16.39-20.43-13.03-16.29-26.05-32.59-39.07-48.89l-8.51-10.66c-1.41-1.77-2.82-3.53-4.23-5.29-4.84-6.05-9.85-12.31-14.68-18.54-.97-1.25-1.84-1.55-3.59-1.25-5.28.91-10.65,1.74-15.85,2.55l-1.47.23c-23.31,3.65-47.42,7.43-71.13,11.12-8.02,1.25-16.04,2.49-24.07,3.73-12.29,1.9-25,3.87-37.5,5.83-1.06.17-2.11.33-3.17.5-1.06.17-2.11.33-3.17.5-.29.05-.56.07-.83.08ZM697.68,388.32h0,0ZM697.82,388.32s0,0,0,0c0,0,0,0,0,0ZM429.95,283.11l.96.93c.37.36.73.73,1.14,1.15l.09.1c.37.39.73.77,1.08,1.17l.24.28c.23.26.45.51.68.8l.13.15c.05.07.11.13.16.2.23.27.46.54.7.84.28.33.55.66.83,1.01l.14.18c.06.07.11.15.16.2l.15.2c.22.28.44.55.67.85l1.32,1.67c.21.27.42.54.64.81l.03.03c.11.15.23.29.34.43.12.15.24.3.36.45,3.8,4.7,7.62,9.51,11.32,14.16l3.2,4.03c1.71,2.15,3.41,4.3,5.11,6.45,2.2,2.79,4.48,5.67,6.73,8.49,3.39,4.24,6.8,8.48,10.2,12.72,1.91,2.37,3.82,4.75,5.72,7.12,2.28,2.83,4.55,5.67,6.82,8.51,4.05,5.05,8.1,10.1,12.16,15.14,2.78,3.45,5.56,6.89,8.35,10.34,3.9,4.81,7.93,9.79,11.86,14.7,1.99,2.49,4.1,5.15,6.83,8.66l1.28,1.64c.56.72,1.13,1.45,1.69,2.17l1.39,1.79c.62.79,1.24,1.59,1.86,2.38l.62.79.15-.02.85-.13c1.74-.26,3.48-.53,5.22-.8,1.72-.26,3.43-.52,5.15-.78,7.18-1.1,14.35-2.2,21.52-3.3,3.56-.55,7.13-1.09,10.7-1.64,10.81-1.66,21.98-3.37,32.97-5.09,11.62-1.82,23.42-3.69,34.84-5.51,8.32-1.32,16.63-2.63,24.94-3.95,6.34-1,12.96-2.03,20.24-3.14,2.08-.32,4.15-.64,6.23-.96.05,0,.13.03.2.04.17.04.35.08.52.1l1.28.19.54-1.18c.81-1.77-.43-2.98-.83-3.37-.06-.06-.15-.15-.18-.18-1.26-1.58-2.53-3.15-3.79-4.72-4.63-5.78-9.27-11.55-13.9-17.33-5.46-6.81-10.93-13.61-16.38-20.42-13.03-16.29-26.05-32.59-39.06-48.89l-8.51-10.66c-1.41-1.77-2.82-3.53-4.23-5.3-4.83-6.04-9.83-12.29-14.65-18.5-2.26-2.92-4.88-2.88-6.9-2.53-5.25.9-10.61,1.74-15.79,2.54l-1.47.23c-23.31,3.66-47.41,7.43-71.13,11.12-8.02,1.25-16.04,2.49-24.06,3.73-12.29,1.9-25.01,3.87-37.5,5.83-1.06.17-2.11.33-3.17.5-1.06.17-2.11.33-3.17.5-.22.03-.5.05-.79.07-.96.05-2.37.12-3.53,1.16-.14.13-.28.27-.41.42l-.47.57-.36.85Z"/><polygon class="cls-4" points="634.01 512.25 508.16 531.18 547.69 431.03 673.54 412.08 634.01 512.25"/><path class="cls-2" d="M578.62,502.62l-6.64-45.83.85-1.1c4.03-5.24,10.85-12.67,20.49-18.35,2.89-1.7,7.71-4.54,13.18-5.37h.04c5.45-.82,8.49.84,10.3,1.83,6.09,3.32,7.54,9.5,7.68,14.11l.03.97-45.94,53.75ZM577.41,455.77l5.29,36.5,36.58-42.79c-.29-3.84-1.71-8.57-6.5-11.18-1.68-.92-3.98-2.17-8.14-1.55h-.03c-4.17.63-7.98,2.88-10.51,4.36-7.58,4.46-13.15,10.25-16.69,14.66Z"/><path class="cls-5" d="M602.99,449.23c-.75,1.9-2.91,3.67-4.82,3.96s-2.85-1.02-2.1-2.92c.75-1.9,2.91-3.67,4.82-3.96s2.85,1.02,2.1,2.92Z"/><path class="cls-3" d="M598.77,459.94c-.75,1.9-2.91,3.67-4.82,3.96s-2.85-1.02-2.1-2.92c.75-1.9,2.91-3.67,4.82-3.96s2.85,1.02,2.1,2.92Z"/><path class="cls-1" d="M594.54,470.66c-.75,1.9-2.91,3.67-4.82,3.96-1.91.29-2.85-1.02-2.1-2.92.75-1.9,2.91-3.67,4.82-3.96s2.85,1.02,2.1,2.92Z"/><polygon class="cls-4" points="474.54 517.44 395.52 418.59 434.51 319.8 513.45 418.87 474.54 517.44"/><path class="cls-2" d="M442.5,449.25l2.86-69.75.68-.68c3.22-3.21,8.47-6.67,15.16-4.9,2,.53,5.35,1.41,8.78,5.72l.02.03c3.42,4.3,5.01,9.6,5.95,12.76,3.18,10.62,3.13,20.58,2.52,27.06l-.13,1.37-35.85,28.38ZM448.8,383.52l-2.28,55.53,28.54-22.6c.4-5.57.25-13.5-2.25-21.85-.88-2.93-2.08-6.95-4.69-10.23l-.02-.02c-2.62-3.29-5.26-3.98-7.01-4.44-5.25-1.39-9.5,1.05-12.3,3.6Z"/><path class="cls-5" d="M465.26,399.94c-.74,1.87-2.31,2.17-3.51.66s-1.57-4.24-.83-6.11c.74-1.87,2.31-2.17,3.51-.66,1.2,1.5,1.57,4.24.83,6.11Z"/><path class="cls-3" d="M461.1,410.5c-.74,1.87-2.31,2.17-3.51.67-1.2-1.5-1.57-4.24-.83-6.11s2.31-2.17,3.51-.66c1.2,1.5,1.57,4.24.83,6.11Z"/><path class="cls-1" d="M456.93,421.05c-.74,1.87-2.31,2.17-3.51.67s-1.57-4.24-.84-6.11c.74-1.87,2.31-2.17,3.51-.67,1.2,1.5,1.57,4.24.83,6.11Z"/><polygon class="cls-2" points="695.8 385.14 537.71 411.04 436.05 284.47 595.31 258.99 695.8 385.14"/><path class="cls-6" d="M610.52,327.9c15.45,19.35,8.29,38.23-15.98,42.18-24.31,3.96-56.62-8.52-72.17-27.91-15.57-19.42-8.39-38.36,16.02-42.29s56.67,8.64,72.14,28.02Z"/><path class="cls-5" d="M608.43,328.39c14.68,18.39,7.88,36.32-15.19,40.08-23.09,3.76-53.79-8.1-68.56-26.52-14.78-18.44-7.97-36.44,15.21-40.17,23.16-3.73,53.83,8.2,68.53,26.61Z"/><path class="cls-3" d="M597.35,330.06c10.82,13.55,5.82,26.77-11.19,29.54s-39.64-5.98-50.51-19.55c-10.88-13.59-5.86-26.84,11.21-29.59,17.06-2.75,39.66,6.03,50.5,19.6Z"/><path class="cls-1" d="M588.57,331.51c7.74,9.68,4.16,19.13-8,21.1-12.16,1.98-28.32-4.27-36.08-13.97-7.77-9.7-4.18-19.16,8-21.13,12.18-1.97,28.33,4.3,36.07,14Z"/><path class="cls-6" d="M577.58,333.32c3.87,4.84,2.08,9.57-4,10.56s-14.16-2.14-18.04-6.99c-3.88-4.85-2.09-9.58,4-10.56s14.16,2.15,18.04,6.99Z"/></svg>