<?xml version="1.0" encoding="UTF-8"?><svg id="Calque_1" xmlns="http://www.w3.org/2000/svg" viewBox="0 0 717 734"><defs><style>.cls-1{fill:#296032;}.cls-1,.cls-2,.cls-3,.cls-4,.cls-5,.cls-6,.cls-7,.cls-8{stroke-width:0px;}.cls-2,.cls-9{fill:#000;}.cls-3{fill:#fdbb30;}.cls-4{fill:none;}.cls-5{fill:#002d62;}.cls-9{stroke:#fff;stroke-miterlimit:10;}.cls-6{fill:#f2f1eb;}.cls-7{fill:#296032;}.cls-8{fill:#fff;}</style></defs><rect class="cls-2" x="551.87" y="70.08" width="68.12" height="25.35" transform="translate(668.69 -503.18) rotate(90)"/><rect class="cls-2" x="546.44" y="548.03" width="9.36" height="100.83" transform="translate(-252.96 474.66) rotate(-38.61)"/><path class="cls-2" d="M597.37,636.17l-19.69,15.72-72.45-90.73c5.76-3.89,11.33-8.21,16.66-12.97,1.02-.91,2.03-1.84,3.02-2.78l72.46,90.76Z"/><path class="cls-2" d="M532.77,598.18c-33.03,35.21-77.65,60-128.97,67.77-121.53,18.39-235.35-65.51-253.74-187.04-13.97-92.3,31.07-180.15,106.79-225.13l-16.45-20.52s-.04.03-.06.04c-27.43,16.83-51.06,38.56-70.24,64.57-19.18,26.02-32.94,55.02-40.9,86.2-8.24,32.3-9.87,65.51-4.85,98.73,5.03,33.22,16.41,64.46,33.84,92.87,16.83,27.43,38.56,51.06,64.57,70.24,26.02,19.18,55.02,32.94,86.2,40.9,32.3,8.24,65.51,9.87,98.73,4.85,33.22-5.03,64.46-16.41,92.87-33.84,17.91-10.99,34.2-24.06,48.69-39.06l-16.48-20.57Z"/><polygon class="cls-2" points="594.13 64.76 132.72 64.76 296.89 270.37 289.57 276.21 120.74 64.76 113.27 55.4 594.13 55.4 594.13 64.76"/><path class="cls-2" d="M602.05,72.68H149.18l.25.31,157.57,197.34c-6.23,4.11-12.25,8.73-17.98,13.85-.63.56-1.24,1.12-1.86,1.69L126.37,84.5l-18.07-22.63c.29-5.63,2.72-10.69,6.5-14.39h487.25v25.2Z"/><path class="cls-2" d="M151.83,63.03c0,.58-.02,1.16-.07,1.73-.22,2.83-.99,5.5-2.19,7.92-.05.1-.1.21-.15.31-1.26,2.44-2.96,4.62-5.01,6.42-2.38,2.09-5.21,3.66-8.34,4.56-1.91.55-3.93.84-6.02.84-1.26,0-2.49-.11-3.68-.31-10.28-1.75-18.1-10.69-18.1-21.47,0-.39.01-.78.03-1.16.29-5.63,2.72-10.69,6.5-14.39,3.93-3.85,9.31-6.23,15.25-6.23s11.32,2.38,15.25,6.23c2.26,2.21,4.03,4.91,5.16,7.92.89,2.37,1.37,4.94,1.37,7.63Z"/><path class="cls-8" d="M130.05,86.56c-1.34,0-2.67-.11-3.98-.34-11.33-1.93-19.55-11.68-19.55-23.19,0-.42.01-.84.03-1.25.31-5.89,2.8-11.41,7.02-15.55,4.43-4.34,10.28-6.73,16.48-6.73s12.05,2.39,16.48,6.73c2.45,2.4,4.38,5.36,5.57,8.56.99,2.63,1.48,5.41,1.48,8.24,0,.61-.02,1.23-.07,1.86-.24,3-1.03,5.88-2.36,8.56-.04.09-.11.22-.18.36-1.34,2.62-3.17,4.95-5.4,6.91-2.59,2.27-5.7,3.98-9,4.93-2.1.61-4.29.91-6.51.91ZM130.05,43c-5.28,0-10.26,2.04-14.03,5.73-3.59,3.52-5.72,8.22-5.98,13.23-.02.35-.03.71-.03,1.07,0,9.8,7,18.1,16.64,19.74,2.96.51,6.06.34,8.93-.49,2.81-.81,5.46-2.26,7.66-4.2,1.91-1.67,3.46-3.65,4.61-5.9.05-.1.09-.17.12-.24,1.16-2.33,1.83-4.78,2.03-7.32.04-.54.06-1.08.06-1.59,0-2.41-.43-4.77-1.26-7.01-1.02-2.72-2.66-5.24-4.74-7.28-3.77-3.7-8.75-5.73-14.03-5.73Z"/><circle class="cls-2" cx="586.95" cy="63.03" r="21.78"/><path class="cls-8" d="M586.95,86.57c-12.98,0-23.53-10.56-23.53-23.53s10.56-23.53,23.53-23.53,23.53,10.56,23.53,23.53-10.56,23.53-23.53,23.53ZM586.95,43c-11.05,0-20.03,8.99-20.03,20.03s8.99,20.03,20.03,20.03,20.03-8.99,20.03-20.03-8.99-20.03-20.03-20.03Z"/><circle class="cls-5" cx="257.57" cy="234.91" r="21.78"/><path class="cls-8" d="M257.57,258.44c-12.98,0-23.53-10.56-23.53-23.53s10.56-23.53,23.53-23.53,23.53,10.56,23.53,23.53-10.56,23.53-23.53,23.53ZM257.57,214.88c-11.05,0-20.03,8.99-20.03,20.03s8.99,20.03,20.03,20.03,20.03-8.99,20.03-20.03-8.99-20.03-20.03-20.03Z"/><circle class="cls-7" cx="550.63" cy="598.06" r="21.78"/><path class="cls-8" d="M550.63,621.6c-12.98,0-23.53-10.56-23.53-23.53s10.56-23.53,23.53-23.53,23.53,10.56,23.53,23.53-10.56,23.53-23.53,23.53ZM550.63,578.03c-11.04,0-20.03,8.99-20.03,20.03s8.99,20.03,20.03,20.03,20.03-8.99,20.03-20.03-8.99-20.03-20.03-20.03Z"/><path class="cls-3" d="M198.49,581.25c0,.58-.02,1.16-.07,1.73-.22,2.83-.99,5.5-2.19,7.92-.05.1-.1.21-.15.31-1.26,2.44-2.96,4.62-5.01,6.42-2.38,2.09-5.21,3.66-8.34,4.56-1.91.55-3.93.84-6.02.84-1.26,0-2.49-.11-3.68-.31-10.28-1.75-18.1-10.69-18.1-21.47,0-.39.01-.78.03-1.16.29-5.63,2.72-10.69,6.5-14.39,3.93-3.85,9.31-6.23,15.25-6.23s11.32,2.38,15.25,6.23c2.26,2.21,4.03,4.91,5.16,7.92.89,2.37,1.37,4.94,1.37,7.63Z"/><path class="cls-8" d="M176.71,604.78c-1.34,0-2.68-.11-3.98-.34-11.33-1.93-19.55-11.68-19.55-23.19,0-.42.01-.84.03-1.25.31-5.89,2.8-11.42,7.02-15.55,4.43-4.34,10.28-6.73,16.48-6.73s12.05,2.39,16.48,6.73c2.45,2.4,4.38,5.36,5.57,8.56.98,2.63,1.48,5.41,1.48,8.24,0,.61-.02,1.23-.07,1.86-.24,3-1.03,5.88-2.36,8.57-.04.1-.11.23-.18.36-1.34,2.61-3.16,4.94-5.4,6.9-2.59,2.27-5.7,3.98-9,4.93-2.1.61-4.29.91-6.51.91ZM176.71,561.21c-5.28,0-10.26,2.04-14.03,5.73-3.59,3.52-5.72,8.22-5.98,13.23-.02.35-.03.71-.03,1.07,0,9.8,7,18.1,16.64,19.74,2.95.51,6.06.34,8.93-.49,2.81-.81,5.46-2.26,7.66-4.2,1.91-1.66,3.46-3.65,4.61-5.9.06-.11.09-.18.13-.25,1.15-2.32,1.83-4.77,2.03-7.32.04-.54.06-1.08.06-1.59,0-2.41-.42-4.77-1.26-7.01-1.02-2.72-2.66-5.24-4.74-7.28-3.77-3.7-8.75-5.73-14.03-5.73Z"/><path class="cls-6" d="M571.38,391.61c-.39-.06-.78-.22-1.15-.16-2.14.32-4.27.65-6.41.98-6.84,1.04-13.68,2.1-20.52,3.18-20.19,3.19-40.39,6.41-60.58,9.58-14.74,2.31-29.49,4.56-44.24,6.82-7.27,1.11-14.53,2.23-21.81,3.34-3.5.53-7,1.07-10.5,1.6-1.1-1.41-2.2-2.82-3.3-4.23-1.01-1.29-2.01-2.58-3.01-3.86-2.3-2.94-4.6-5.88-6.94-8.79-6.79-8.49-13.67-16.91-20.48-25.38-6.43-7.98-12.82-15.98-19.23-23.96-5.38-6.7-10.77-13.39-16.14-20.1-4.02-5.02-7.98-10.1-11.99-15.14-4.9-6.15-9.77-12.32-14.72-18.44-.24-.3-.48-.6-.72-.9-.22-.27-.44-.55-.65-.82-.45-.57-.9-1.15-1.35-1.72-.27-.35-.56-.71-.83-1.06-.1-.13-.21-.27-.31-.4-.28-.35-.56-.7-.85-1.05-.23-.29-.48-.58-.73-.87-.1-.11-.19-.23-.29-.35-.31-.37-.63-.73-.94-1.1-.38-.43-.76-.84-1.15-1.25-.03-.04-.07-.09-.11-.13-.39-.4-.77-.81-1.18-1.19.98-1.19,2.47-.87,3.71-1.06,2.15-.34,4.28-.67,6.43-1.01,20.79-3.26,41.6-6.45,62.39-9.69,24.03-3.73,48.06-7.5,72.08-11.27,5.84-.91,11.69-1.81,17.52-2.81,2.2-.39,3.82-.02,5.32,1.91,6.29,8.11,12.74,16.11,19.15,24.13,16.06,20.11,32.13,40.23,48.21,60.34,10.23,12.77,20.47,25.5,30.69,38.26,1.28,1.59,2.56,3.19,3.84,4.78.4.51,1.2.9.8,1.79Z"/><path class="cls-9" d="M406.18,416.95c-1.1-1.41-2.2-2.82-3.3-4.22-1.01-1.29-2.01-2.58-3.01-3.86-2.3-2.95-4.61-5.88-6.94-8.8-6.79-8.49-13.67-16.91-20.48-25.38-6.43-7.97-12.83-15.97-19.24-23.96-5.38-6.7-10.77-13.38-16.13-20.1-4.02-5.02-7.99-10.1-12-15.14-4.89-6.15-9.78-12.33-14.71-18.44-.24-.3-.48-.6-.72-.89-.22-.28-.43-.56-.65-.82-.45-.57-.9-1.14-1.35-1.72-.27-.36-.56-.71-.83-1.06-.1-.13-.21-.27-.31-.4-.28-.36-.56-.7-.85-1.05-.23-.29-.48-.57-.73-.87-.1-.11-.19-.23-.29-.35-.31-.37-.63-.74-.95-1.09-.38-.43-.76-.84-1.15-1.25-.03-.04-.08-.1-.11-.13-.39-.41-.78-.81-1.18-1.2-.36.8-.74,1.58-1.05,2.39-.98,2.52-1.98,5.03-2.96,7.56-13.22,33.66-26.41,67.35-39.63,101.01-1.34,3.43-2.69,6.87-4.05,10.3-4.15,10.57-8.33,21.12-12.51,31.68-.56,1.41-.76,2.52.36,3.89,1.63,2.01,3.26,4.04,4.87,6.06,7.42,9.26,14.8,18.55,22.22,27.81,14.33,17.88,28.7,35.74,43.03,53.61,3.73,4.64,7.45,9.3,11.18,13.95,5.27,6.59,10.55,13.18,15.82,19.79,1.86,2.32,3.71,4.65,5.58,6.97.55.69,1.05,1.46,2.13,1.01-.62-1.19.19-2.15.57-3.12,3.9-10.02,7.81-20.03,11.72-30.05,0-.03.04-.1.08-.21,5.19-13.84,18.44-47.98,47.57-121.93ZM395.61,419.67l-3.34,8.43h0s-40.4,102.35-40.4,102.35l-92.19-115.31,43.84-111.08,92.08,115.6h0Z"/><polygon class="cls-6" points="395.61 419.67 395.61 419.67 392.27 428.11 392.27 428.11 351.88 530.46 259.69 415.15 303.53 304.07 395.61 419.67"/><path class="cls-9" d="M570.24,391.45c-2.14.32-4.28.65-6.41.98-6.84,1.04-13.68,2.1-20.52,3.17-20.19,3.19-40.39,6.41-60.58,9.58-14.75,2.32-29.49,4.55-44.25,6.82-7.26,1.12-14.53,2.23-21.81,3.34-3.5.54-7,1.08-10.5,1.6-1.25,3.21-2.51,6.42-3.76,9.63-.15.36-.29.74-.43,1.1-14.46,37.06-28.93,74.13-43.38,111.2l.14.18-.22.03c-3.91,10.02-7.82,20.03-11.72,30.05-.38.97-1.2,1.93-.57,3.12.4-.02.79,0,1.17-.05,2.61-.41,5.22-.8,7.84-1.21,8.61-1.32,17.24-2.65,25.86-3.97,5.72-.88,11.46-1.77,17.18-2.66,34.69-5.4,69.38-10.83,104.06-16.2,1.97-.3,3.94-.61,5.91-.92,1.46-.23,2.4-.62,3-2.13,4.02-10.28,8.03-20.55,12.05-30.83,9.95-25.41,19.91-50.81,29.87-76.23.07-.15.13-.3.2-.46,3.99-10.08,8-20.16,11.96-30.26.74-1.87,1.46-3.74,2.17-5.61,1.29-3.37,2.58-6.75,3.87-10.12-.39-.05-.78-.22-1.14-.16ZM515.26,515.51l-146.83,22.09,40.13-101.68,4.31-10.91,146.83-22.1-44.44,112.6Z"/><polygon class="cls-6" points="559.69 402.91 515.26 515.51 368.43 537.6 408.56 435.92 412.87 425.01 559.69 402.91"/><path class="cls-2" d="M306.71,286.49c.2.22.4.44.6.66l.25.28c.24.28.49.56.72.85.03.04.09.1.14.17l.12.15c.26.3.51.6.75.9.27.33.56.68.85,1.04.05.06.1.13.16.2l.3.38c.23.29.46.58.68.87l1.33,1.68c.21.28.42.53.62.79.13.16.25.31.37.46.11.14.23.29.35.43,3.81,4.71,7.63,9.53,11.34,14.19l3.2,4.02c1.71,2.15,3.41,4.3,5.11,6.46,2.2,2.78,4.47,5.66,6.72,8.48,3.39,4.24,6.79,8.47,10.2,12.71,1.91,2.37,3.82,4.75,5.73,7.12,2.28,2.83,4.55,5.67,6.82,8.51,4.05,5.05,8.09,10.1,12.15,15.13,2.78,3.45,5.56,6.89,8.35,10.33,3.9,4.82,7.93,9.79,11.87,14.72,2,2.49,4.11,5.18,6.86,8.69l1.28,1.65c.56.72,1.12,1.44,1.69,2.17l1.4,1.79c.41.53.82,1.06,1.24,1.59,1.41-.21,2.81-.43,4.22-.65,1.72-.26,3.43-.53,5.15-.79,7.18-1.1,14.35-2.2,21.52-3.29,3.57-.55,7.13-1.09,10.7-1.64,10.8-1.66,21.97-3.37,32.96-5.09,11.61-1.82,23.42-3.69,34.84-5.51,8.32-1.32,16.63-2.64,24.95-3.95,6.34-1,12.97-2.03,20.26-3.14,1.61-.25,3.22-.5,4.83-.74-1.01-1.26-2.02-2.52-3.03-3.77-4.64-5.78-9.27-11.56-13.91-17.33-5.46-6.81-10.93-13.61-16.39-20.43-13.03-16.29-26.05-32.59-39.07-48.89l-8.51-10.66c-1.41-1.77-2.82-3.53-4.23-5.29-4.84-6.05-9.85-12.31-14.68-18.54-.97-1.25-1.84-1.55-3.59-1.25-5.28.91-10.65,1.74-15.85,2.55l-1.47.23c-23.31,3.65-47.42,7.43-71.13,11.12-8.02,1.25-16.04,2.49-24.07,3.73-12.29,1.9-25,3.87-37.5,5.83-1.06.17-2.11.33-3.17.5-1.06.17-2.11.33-3.17.5-.29.05-.56.07-.83.08ZM569.18,391.29h0,0ZM569.32,391.28s0,0,0,0c0,0,0,0,0,0ZM301.45,286.07l.96.93c.37.36.73.73,1.14,1.15l.09.1c.37.39.73.77,1.08,1.17l.24.28c.23.26.45.51.68.8l.13.15c.05.07.11.13.16.2.23.27.46.54.7.84.28.33.55.66.83,1.01l.14.18c.06.07.11.15.16.2l.15.2c.22.28.44.55.67.85l1.32,1.67c.21.27.42.54.64.81l.03.03c.11.15.23.29.34.43.12.15.24.3.36.45,3.8,4.7,7.62,9.51,11.32,14.16l3.2,4.03c1.71,2.15,3.41,4.3,5.11,6.45,2.2,2.79,4.48,5.67,6.73,8.49,3.39,4.24,6.8,8.48,10.2,12.72,1.91,2.37,3.82,4.75,5.72,7.12,2.28,2.83,4.55,5.67,6.82,8.51,4.05,5.05,8.1,10.1,12.16,15.14,2.78,3.45,5.56,6.89,8.35,10.34,3.9,4.81,7.93,9.79,11.86,14.7,1.99,2.49,4.1,5.15,6.83,8.66l1.28,1.64c.56.72,1.13,1.45,1.69,2.17l1.39,1.79c.62.79,1.24,1.59,1.86,2.38l.62.79.15-.02.85-.13c1.74-.26,3.48-.53,5.22-.8,1.72-.26,3.43-.52,5.15-.78,7.18-1.1,14.35-2.2,21.52-3.3,3.56-.55,7.13-1.09,10.7-1.64,10.81-1.66,21.98-3.37,32.97-5.09,11.62-1.82,23.42-3.69,34.84-5.51,8.32-1.32,16.63-2.63,24.94-3.95,6.34-1,12.96-2.03,20.24-3.14,2.08-.32,4.15-.64,6.23-.96.05,0,.13.03.2.04.17.04.35.08.52.1l1.28.19.54-1.18c.81-1.77-.43-2.98-.83-3.37-.06-.06-.15-.15-.18-.18-1.26-1.58-2.53-3.15-3.79-4.72-4.63-5.78-9.27-11.55-13.9-17.33-5.46-6.81-10.93-13.61-16.38-20.42-13.03-16.29-26.05-32.59-39.06-48.89l-8.51-10.66c-1.41-1.77-2.82-3.53-4.23-5.3-4.83-6.04-9.83-12.29-14.65-18.5-2.26-2.92-4.88-2.88-6.9-2.53-5.25.9-10.61,1.74-15.79,2.54l-1.47.23c-23.31,3.66-47.41,7.43-71.13,11.12-8.02,1.25-16.04,2.49-24.06,3.73-12.29,1.9-25.01,3.87-37.5,5.83-1.06.17-2.11.33-3.17.5-1.06.17-2.11.33-3.17.5-.22.03-.5.05-.79.07-.96.05-2.37.12-3.53,1.16-.14.13-.28.27-.41.42l-.47.57-.36.85Z"/><polygon class="cls-4" points="505.51 515.21 379.66 534.15 419.19 433.99 545.04 415.05 505.51 515.21"/><path class="cls-2" d="M450.12,505.58l-6.64-45.83.85-1.1c4.03-5.24,10.85-12.67,20.49-18.35,2.89-1.7,7.71-4.54,13.18-5.37h.04c5.45-.82,8.49.84,10.3,1.83,6.09,3.32,7.54,9.5,7.68,14.11l.03.97-45.94,53.75ZM448.91,458.74l5.29,36.5,36.58-42.79c-.29-3.84-1.71-8.57-6.5-11.18-1.68-.92-3.98-2.17-8.14-1.55h-.03c-4.17.63-7.98,2.88-10.51,4.36-7.58,4.46-13.15,10.25-16.69,14.66Z"/><path class="cls-5" d="M474.49,452.19c-.75,1.9-2.91,3.67-4.82,3.96s-2.85-1.02-2.1-2.92c.75-1.9,2.91-3.67,4.82-3.96s2.85,1.02,2.1,2.92Z"/><path class="cls-3" d="M470.27,462.91c-.75,1.9-2.91,3.67-4.82,3.96s-2.85-1.02-2.1-2.92c.75-1.9,2.91-3.67,4.82-3.96s2.85,1.02,2.1,2.92Z"/><path class="cls-1" d="M466.04,473.62c-.75,1.9-2.91,3.67-4.82,3.96-1.91.29-2.85-1.02-2.1-2.92.75-1.9,2.91-3.67,4.82-3.96s2.85,1.02,2.1,2.92Z"/><polygon class="cls-4" points="346.04 520.4 267.02 421.56 306.01 322.76 384.95 421.83 346.04 520.4"/><path class="cls-2" d="M314,452.22l2.86-69.75.68-.68c3.22-3.21,8.47-6.67,15.16-4.9,2,.53,5.35,1.41,8.78,5.72l.02.03c3.42,4.3,5.01,9.6,5.95,12.76,3.18,10.62,3.13,20.58,2.52,27.06l-.13,1.37-35.85,28.38ZM320.3,386.49l-2.28,55.53,28.54-22.6c.4-5.57.25-13.5-2.25-21.85-.88-2.93-2.08-6.95-4.69-10.23l-.02-.02c-2.62-3.29-5.26-3.98-7.01-4.44-5.25-1.39-9.5,1.05-12.3,3.6Z"/><path class="cls-5" d="M336.76,402.9c-.74,1.87-2.31,2.17-3.51.66s-1.57-4.24-.83-6.11c.74-1.87,2.31-2.17,3.51-.66,1.2,1.5,1.57,4.24.83,6.11Z"/><path class="cls-3" d="M332.6,413.46c-.74,1.87-2.31,2.17-3.51.67-1.2-1.5-1.57-4.24-.83-6.11s2.31-2.17,3.51-.66c1.2,1.5,1.57,4.24.83,6.11Z"/><path class="cls-1" d="M328.43,424.02c-.74,1.87-2.31,2.17-3.51.67s-1.57-4.24-.84-6.11c.74-1.87,2.31-2.17,3.51-.67,1.2,1.5,1.57,4.24.83,6.11Z"/><polygon class="cls-2" points="567.3 388.11 409.21 414 307.55 287.43 466.81 261.95 567.3 388.11"/><path class="cls-6" d="M482.02,330.86c15.45,19.35,8.29,38.23-15.98,42.18-24.31,3.96-56.62-8.52-72.17-27.91-15.57-19.42-8.39-38.36,16.02-42.29s56.67,8.64,72.14,28.02Z"/><path class="cls-5" d="M479.93,331.35c14.68,18.39,7.88,36.32-15.19,40.08-23.09,3.76-53.79-8.1-68.56-26.52-14.78-18.44-7.97-36.44,15.21-40.17,23.16-3.73,53.83,8.2,68.53,26.61Z"/><path class="cls-3" d="M468.85,333.03c10.82,13.55,5.82,26.77-11.19,29.54s-39.64-5.98-50.51-19.55c-10.88-13.59-5.86-26.84,11.21-29.59,17.06-2.75,39.66,6.03,50.5,19.6Z"/><path class="cls-1" d="M460.07,334.48c7.74,9.68,4.16,19.13-8,21.1s-28.32-4.27-36.08-13.97c-7.77-9.7-4.18-19.16,8-21.13,12.18-1.97,28.33,4.3,36.07,14Z"/><path class="cls-6" d="M449.08,336.29c3.87,4.84,2.08,9.57-4,10.56-6.08.99-14.16-2.14-18.04-6.99-3.88-4.85-2.09-9.58,4-10.56s14.16,2.15,18.04,6.99Z"/></svg>